<svg xmlns="http://www.w3.org/2000/svg" width="760" height="462" viewBox="0 0 760 462" font-family='system-ui, -apple-system, "Segoe UI", Helvetica, Arial, sans-serif'>
<title>New memes over HTTP, 64 connections</title>
<text x="0" y="20" font-size="16" font-weight="600" fill="#0b0b0b">New memes over HTTP, 64 connections</text>
<text x="0" y="40" font-size="13" fill="#52514e">Requests per second, linear scale (higher is better)</text>
<rect x="0" y="58" width="12" height="12" rx="3" fill="#2a78d6"/>
<text x="18" y="68.5" font-size="13" fill="#52514e">memegen-rust</text>
<rect x="130.8" y="58" width="12" height="12" rx="3" fill="#eb6834"/>
<text x="148.8" y="68.5" font-size="13" fill="#52514e">memegen-rs</text>
<rect x="246.8" y="58" width="12" height="12" rx="3" fill="#1baf7a"/>
<text x="264.8" y="68.5" font-size="13" fill="#52514e">Upstream Python</text>
<line x1="196.0" y1="92" x2="196.0" y2="408" stroke="#c3c2b7" stroke-width="1"/>
<text x="196.0" y="426" font-size="11" text-anchor="middle" fill="#6b6964" style="font-variant-numeric: tabular-nums">0</text>
<line x1="276.0" y1="92" x2="276.0" y2="408" stroke="#e1e0d9" stroke-width="1"/>
<text x="276.0" y="426" font-size="11" text-anchor="middle" fill="#6b6964" style="font-variant-numeric: tabular-nums">2,000</text>
<line x1="356.0" y1="92" x2="356.0" y2="408" stroke="#e1e0d9" stroke-width="1"/>
<text x="356.0" y="426" font-size="11" text-anchor="middle" fill="#6b6964" style="font-variant-numeric: tabular-nums">4,000</text>
<line x1="436.0" y1="92" x2="436.0" y2="408" stroke="#e1e0d9" stroke-width="1"/>
<text x="436.0" y="426" font-size="11" text-anchor="middle" fill="#6b6964" style="font-variant-numeric: tabular-nums">6,000</text>
<line x1="516.0" y1="92" x2="516.0" y2="408" stroke="#e1e0d9" stroke-width="1"/>
<text x="516.0" y="426" font-size="11" text-anchor="middle" fill="#6b6964" style="font-variant-numeric: tabular-nums">8,000</text>
<line x1="596.0" y1="92" x2="596.0" y2="408" stroke="#e1e0d9" stroke-width="1"/>
<text x="596.0" y="426" font-size="11" text-anchor="middle" fill="#6b6964" style="font-variant-numeric: tabular-nums">10,000</text>
<line x1="676.0" y1="92" x2="676.0" y2="408" stroke="#e1e0d9" stroke-width="1"/>
<text x="676.0" y="426" font-size="11" text-anchor="middle" fill="#6b6964" style="font-variant-numeric: tabular-nums">12,000</text>
<text x="184" y="129.5" font-size="13" text-anchor="end" fill="#0b0b0b">static png, 2 lines</text>
<path d="M196.0,108.0H590.6A4,4 0 0 1 594.6,112.0V114.0A4,4 0 0 1 590.6,118.0H196.0Z" fill="#2a78d6"><title>memegen-rust: 9,964 req/s</title></path>
<text x="599.6" y="117" font-size="11" fill="#52514e">9,964</text>
<path d="M196.0,120.0H245.7A4,4 0 0 1 249.7,124.0V126.0A4,4 0 0 1 245.7,130.0H196.0Z" fill="#eb6834"><title>memegen-rs: 1,342 req/s</title></path>
<text x="254.7" y="129" font-size="11" fill="#52514e">1,342</text>
<path d="M196.0,132.0H198.7A2.739999999999995,2.739999999999995 0 0 1 201.5,134.7V139.3A2.739999999999995,2.739999999999995 0 0 1 198.7,142.0H196.0Z" fill="#1baf7a"><title>Upstream Python: 137 req/s</title></path>
<text x="206.5" y="141" font-size="11" fill="#52514e">137</text>
<text x="184" y="179.5" font-size="13" text-anchor="end" fill="#0b0b0b">static jpg, wrapped text</text>
<path d="M196.0,158.0H418.6A4,4 0 0 1 422.6,162.0V164.0A4,4 0 0 1 418.6,168.0H196.0Z" fill="#2a78d6"><title>memegen-rust: 5,665 req/s</title></path>
<text x="427.6" y="167" font-size="11" fill="#52514e">5,665</text>
<path d="M196.0,170.0H251.9A4,4 0 0 1 255.9,174.0V176.0A4,4 0 0 1 251.9,180.0H196.0Z" fill="#eb6834"><title>memegen-rs: 1,498 req/s</title></path>
<text x="260.9" y="179" font-size="11" fill="#52514e">1,498</text>
<path d="M196.0,182.0H197.5A1.4599999999999937,1.4599999999999937 0 0 1 198.9,183.5V190.5A1.4599999999999937,1.4599999999999937 0 0 1 197.5,192.0H196.0Z" fill="#1baf7a"><title>Upstream Python: 73 req/s</title></path>
<text x="203.9" y="191" font-size="11" fill="#52514e">73</text>
<text x="184" y="229.5" font-size="13" text-anchor="end" fill="#0b0b0b">static png, 3 lines rotated</text>
<path d="M196.0,208.0H305.5A4,4 0 0 1 309.5,212.0V214.0A4,4 0 0 1 305.5,218.0H196.0Z" fill="#2a78d6"><title>memegen-rust: 2,838 req/s</title></path>
<text x="314.5" y="217" font-size="11" fill="#52514e">2,838</text>
<path d="M196.0,220.0H236.8A4,4 0 0 1 240.8,224.0V226.0A4,4 0 0 1 236.8,230.0H196.0Z" fill="#eb6834"><title>memegen-rs: 1,120 req/s</title></path>
<text x="245.8" y="229" font-size="11" fill="#52514e">1,120</text>
<path d="M196.0,232.0H197.2A1.2399999999999949,1.2399999999999949 0 0 1 198.5,233.2V240.8A1.2399999999999949,1.2399999999999949 0 0 1 197.2,242.0H196.0Z" fill="#1baf7a"><title>Upstream Python: 62 req/s</title></path>
<text x="203.5" y="241" font-size="11" fill="#52514e">62</text>
<text x="184" y="279.5" font-size="13" text-anchor="end" fill="#0b0b0b">static png, emoji</text>
<path d="M196.0,258.0H599.7A4,4 0 0 1 603.7,262.0V264.0A4,4 0 0 1 599.7,268.0H196.0Z" fill="#2a78d6"><title>memegen-rust: 10,192 req/s</title></path>
<text x="608.7" y="267" font-size="11" fill="#52514e">10,192</text>
<path d="M196.0,270.0H247.4A4,4 0 0 1 251.4,274.0V276.0A4,4 0 0 1 247.4,280.0H196.0Z" fill="#eb6834"><title>memegen-rs: 1,384 req/s</title></path>
<text x="256.4" y="279" font-size="11" fill="#52514e">1,384¹</text>
<path d="M196.0,282.0H197.8A1.7600000000000051,1.7600000000000051 0 0 1 199.5,283.8V290.2A1.7600000000000051,1.7600000000000051 0 0 1 197.8,292.0H196.0Z" fill="#1baf7a"><title>Upstream Python: 88 req/s</title></path>
<text x="204.5" y="291" font-size="11" fill="#52514e">88</text>
<text x="184" y="329.5" font-size="13" text-anchor="end" fill="#0b0b0b">animated gif, 24 frames</text>
<path d="M196.0,308.0H199.8A3.799999999999997,3.799999999999997 0 0 1 203.6,311.8V314.2A3.799999999999997,3.799999999999997 0 0 1 199.8,318.0H196.0Z" fill="#2a78d6"><title>memegen-rust: 190 req/s</title></path>
<text x="208.6" y="317" font-size="11" fill="#52514e">190</text>
<path d="M196.0,320.0H196.8A0.75,0.75 0 0 1 197.5,320.8V329.2A0.75,0.75 0 0 1 196.8,330.0H196.0Z" fill="#eb6834"><title>memegen-rs: 6.9 req/s</title></path>
<text x="202.5" y="329" font-size="11" fill="#52514e">6.9</text>
<path d="M196.0,332.0H196.8A0.75,0.75 0 0 1 197.5,332.8V341.2A0.75,0.75 0 0 1 196.8,342.0H196.0Z" fill="#1baf7a"><title>Upstream Python: 8.4 req/s</title></path>
<text x="202.5" y="341" font-size="11" fill="#52514e">8.4</text>
<text x="184" y="379.5" font-size="13" text-anchor="end" fill="#0b0b0b">animated webp, 24 frames</text>
<path d="M196.0,358.0H197.9A1.8799999999999955,1.8799999999999955 0 0 1 199.8,359.9V366.1A1.8799999999999955,1.8799999999999955 0 0 1 197.9,368.0H196.0Z" fill="#2a78d6"><title>memegen-rust: 94 req/s</title></path>
<text x="204.8" y="367" font-size="11" fill="#52514e">94</text>
<path d="M196.0,370.0H241.1A4,4 0 0 1 245.1,374.0V376.0A4,4 0 0 1 241.1,380.0H196.0Z" fill="#eb6834"><title>memegen-rs: 1,228 req/s</title></path>
<text x="250.1" y="379" font-size="11" fill="#52514e">1,228²</text>
<path d="M196.0,382.0H196.8A0.75,0.75 0 0 1 197.5,382.8V391.2A0.75,0.75 0 0 1 196.8,392.0H196.0Z" fill="#1baf7a"><title>Upstream Python: 5.8 req/s</title></path>
<text x="202.5" y="391" font-size="11" fill="#52514e">5.8</text>
<text x="0" y="456" font-size="12" fill="#6b6964">memegen-rs: ¹ draws :fire: as text, no color emoji · ² returns a single still frame</text>
</svg>
